<?xml version="1.0" standalone="no"?>
<!DOCTYPE svg PUBLIC "-//W3C//DTD SVG 20010904//EN"
 "http://www.w3.org/TR/2001/REC-SVG-20010904/DTD/svg10.dtd">
<svg version="1.0" xmlns="http://www.w3.org/2000/svg"
 width="286.000000pt" height="286.000000pt" viewBox="0 0 286.000000 286.000000"
 preserveAspectRatio="xMidYMid meet">
<metadata>
Created by potrace 1.11, written by Peter Selinger 2001-2013
</metadata>
<g transform="translate(0.000000,286.000000) scale(0.100000,-0.100000)"
fill="#000000" stroke="none">
<path d="M1414 2260 c-38 -15 -64 -59 -64 -106 0 -36 6 -51 34 -82 l35 -38
-28 -80 c-74 -209 -160 -314 -260 -314 -63 0 -140 40 -209 107 -57 56 -64 66
-49 74 25 15 47 63 47 105 0 51 -53 104 -104 104 -97 0 -153 -88 -111 -170 9
-17 19 -30 23 -30 4 0 18 -9 31 -19 22 -17 23 -19 7 -48 -23 -45 -90 -99 -142
-113 -56 -16 -196 -8 -272 15 -51 15 -53 17 -38 34 9 10 16 35 16 58 0 34 -6
46 -31 67 -37 31 -67 33 -103 5 -53 -42 -54 -37 54 -346 56 -159 108 -294 117
-300 24 -19 2162 -18 2187 0 13 9 171 440 213 578 3 10 -8 31 -25 50 -38 43
-90 46 -128 7 -32 -31 -36 -88 -10 -117 18 -19 17 -20 -36 -36 -75 -23 -216
-31 -271 -15 -56 15 -112 60 -137 110 l-19 38 33 26 c68 51 69 146 2 187 -82
50 -180 -2 -180 -95 0 -29 9 -47 49 -102 14 -19 -76 -108 -140 -139 -162 -80
-258 -14 -359 242 -43 110 -44 125 -11 151 58 46 58 120 -1 171 -36 32 -76 39
-120 21z m-506 -768 l30 -49 -30 -51 c-16 -29 -34 -50 -39 -47 -5 4 -20 26
-35 50 -22 38 -24 47 -13 67 14 28 49 78 54 78 2 0 17 -22 33 -48z m595 3 c15
-25 27 -50 27 -56 0 -6 -14 -31 -31 -56 l-31 -45 -29 44 c-16 23 -29 49 -29
57 0 15 51 101 60 101 3 0 17 -20 33 -45z m596 -4 l32 -49 -31 -51 c-18 -28
-33 -51 -35 -51 -12 0 -65 102 -59 112 28 47 55 88 58 88 2 0 18 -22 35 -49z"/>
<path d="M408 1013 c-10 -3 -18 -12 -18 -22 0 -24 60 -213 72 -228 8 -10 219
-13 993 -13 541 0 990 3 999 6 9 3 31 53 53 120 30 92 35 116 25 126 -10 10
-231 13 -1060 14 -576 1 -1055 -1 -1064 -3z"/>
</g>
</svg>
